<?xml version="1.0" standalone="no"?>
<!DOCTYPE svg PUBLIC "-//W3C//DTD SVG 20010904//EN"
 "http://www.w3.org/TR/2001/REC-SVG-20010904/DTD/svg10.dtd">
<svg version="1.0" xmlns="http://www.w3.org/2000/svg"
 width="909.000000pt" height="1280.000000pt" viewBox="0 0 909.000000 1280.000000"
 preserveAspectRatio="xMidYMid meet">
<metadata>
Created by potrace 1.15, written by Peter Selinger 2001-2017
</metadata>
<g transform="translate(0.000000,1280.000000) scale(0.100000,-0.100000)"
fill="#000000" stroke="none">
<path d="M3215 12784 c-49 -7 -179 -18 -288 -25 -108 -7 -203 -16 -210 -21
-21 -13 -10 -168 36 -483 25 -165 41 -304 37 -308 -10 -11 -239 -67 -277 -67
-42 0 -38 -10 -170 415 -59 187 -108 342 -110 344 -2 3 -87 -39 -191 -91 -103
-53 -233 -115 -289 -139 -57 -23 -103 -47 -103 -51 0 -9 82 -168 120 -233 64
-109 243 -463 245 -484 3 -26 -9 -40 -57 -66 -24 -13 -28 -13 -42 1 -17 16
-19 13 -17 -22 3 -31 -62 -68 -90 -53 -16 8 -23 7 -33 -7 -7 -9 -18 -14 -24
-10 -17 10 -179 223 -325 427 -69 96 -134 183 -145 192 -18 16 -20 15 -52 -30
-19 -27 -123 -137 -233 -246 -109 -108 -197 -201 -195 -206 3 -10 150 -142
373 -336 82 -71 162 -142 178 -157 l28 -28 -26 -32 c-14 -18 -52 -66 -82 -106
-31 -40 -62 -71 -68 -68 -7 2 -17 0 -23 -6 -12 -12 -64 21 -461 290 -116 78
-215 142 -220 142 -5 0 -12 -12 -16 -27 -12 -50 -106 -265 -193 -441 -47 -95
-83 -174 -81 -176 5 -4 487 -195 624 -246 61 -23 111 -43 113 -44 1 -2 -6 -27
-16 -57 -11 -30 -25 -79 -32 -109 -13 -57 -42 -100 -68 -100 -19 0 -217 46
-516 121 -131 32 -243 59 -247 59 -5 0 -9 -31 -9 -69 0 -98 -17 -302 -40 -479
-11 -84 -18 -157 -15 -161 2 -5 183 -12 400 -16 387 -7 396 -8 410 -28 22 -32
19 -73 -7 -92 -23 -15 -20 -23 13 -37 3 -2 9 -20 13 -40 6 -31 3 -39 -14 -48
-15 -8 -19 -17 -15 -31 4 -13 2 -19 -9 -19 -9 0 -87 -9 -173 -19 -87 -11 -250
-29 -363 -41 -113 -12 -215 -24 -227 -26 l-22 -4 19 -55 c21 -62 107 -398 141
-552 22 -101 22 -103 48 -96 21 5 450 153 680 234 30 10 55 18 56 17 13 -16
79 -192 82 -220 l5 -36 -358 -176 c-197 -97 -360 -178 -362 -181 -2 -2 61
-102 140 -222 80 -120 168 -258 197 -306 29 -48 57 -87 62 -85 5 2 149 115
319 252 256 205 314 247 333 242 19 -6 157 -152 165 -176 4 -10 -189 -219
-398 -433 -74 -76 -136 -144 -138 -152 -2 -7 23 -33 55 -56 57 -41 217 -166
411 -321 74 -58 100 -74 109 -65 10 11 89 140 335 547 80 132 111 163 145 147
16 -7 25 -22 29 -49 6 -37 17 -48 29 -28 17 28 95 -2 95 -37 0 -12 5 -23 10
-23 19 0 10 -26 -86 -235 -190 -414 -223 -490 -216 -497 14 -14 687 -237 693
-230 4 4 42 180 84 391 42 212 78 388 81 393 6 10 74 11 74 1 0 -5 -9 -84 -20
-178 -11 -93 -36 -314 -56 -490 -19 -176 -39 -323 -43 -327 -3 -4 -47 -12 -96
-17 -120 -13 -397 -51 -413 -56 -22 -8 -12 -25 15 -25 25 0 26 -1 8 -14 -26
-19 -11 -36 79 -86 70 -38 75 -39 197 -45 68 -3 139 -8 157 -11 l33 -5 -7 -62
c-6 -56 -11 -66 -53 -110 -25 -27 -57 -55 -71 -62 -25 -13 -26 -19 -54 -257
-15 -133 -32 -270 -37 -303 -19 -131 -7 -174 46 -161 16 4 33 22 47 49 30 57
33 35 18 -111 -13 -127 -23 -158 -52 -165 -22 -6 -16 -27 8 -27 17 0 18 -29 4
-155 -19 -174 -16 -165 -65 -165 -24 0 -47 4 -50 10 -13 21 -43 10 -49 -18 -9
-42 -66 -518 -73 -603 -6 -75 -5 -77 21 -94 17 -11 39 -16 66 -13 l40 4 0 -37
c0 -20 -9 -104 -20 -185 -10 -82 -26 -212 -35 -289 -21 -186 -18 -178 -68
-172 -23 3 -54 8 -69 12 -26 7 -28 5 -28 -21 0 -28 -18 -157 -60 -433 -36
-237 -28 -271 63 -271 46 0 47 0 47 -32 0 -32 -20 -203 -56 -488 -9 -74 -21
-141 -27 -147 -13 -18 -54 -16 -88 4 -15 9 -31 15 -34 12 -2 -3 -8 -36 -12
-74 -10 -82 -6 -80 -181 -91 -64 -3 -123 -11 -129 -16 -7 -6 -13 -26 -13 -44
0 -49 29 -61 117 -46 135 23 183 25 183 11 0 -8 -9 -88 -20 -179 -23 -190 -25
-271 -8 -288 7 -7 36 -12 65 -12 36 0 53 -4 53 -12 0 -7 -5 -47 -11 -88 -9
-74 -28 -240 -51 -453 -7 -67 -17 -114 -25 -123 -19 -18 -57 -18 -93 1 -19 10
-31 11 -35 4 -8 -12 -33 -222 -28 -228 7 -10 12 10 23 104 7 55 13 100 13 101
1 1 31 -1 65 -4 l64 -5 -6 -56 c-4 -31 -9 -75 -13 -98 l-5 -43 60 0 c42 0 61
4 65 14 3 7 9 50 12 94 8 86 8 86 46 120 l26 23 -23 -122 c-13 -68 -21 -125
-19 -127 2 -3 7 1 9 9 7 19 114 565 163 831 10 54 21 98 26 98 11 0 9 -50 -18
-421 -14 -189 -28 -383 -32 -431 l-6 -88 72 0 c53 0 71 3 71 13 0 29 51 623
54 632 2 6 76 -136 165 -315 89 -179 166 -326 171 -328 5 -2 -68 153 -162 344
l-171 347 12 176 c7 97 14 178 16 179 6 6 28 -34 151 -273 65 -126 149 -288
186 -360 38 -72 90 -172 115 -222 l47 -92 -22 -46 c-24 -51 -26 -55 -14 -55 5
0 16 16 25 36 19 39 30 37 53 -8 8 -16 18 -28 20 -25 3 3 -4 23 -15 46 -12 22
-21 45 -21 50 0 5 89 178 197 383 108 205 227 432 265 505 38 73 72 134 77
138 11 6 18 -39 26 -165 3 -52 10 -147 16 -210 l10 -116 -126 -259 c-69 -143
-139 -286 -156 -319 -19 -35 -26 -57 -18 -54 7 2 75 132 150 287 76 156 142
288 147 293 7 7 12 -28 16 -99 4 -59 11 -148 17 -198 5 -50 13 -133 17 -185
l7 -95 72 -3 72 -3 4 33 4 33 1 -32 c2 -30 5 -33 36 -33 29 0 35 4 40 28 4 15
9 35 13 46 3 13 1 16 -7 11 -8 -5 -10 -2 -7 11 4 11 9 31 13 47 3 15 10 27 15
27 5 0 7 -11 3 -25 -4 -15 -2 -25 5 -25 6 0 11 -15 11 -34 0 -19 4 -46 10 -60
9 -24 14 -26 75 -26 75 0 71 -7 55 115 -6 39 -14 110 -19 160 -10 87 -39 344
-81 700 l-20 170 21 28 21 29 -21 22 c-22 23 -31 82 -17 104 4 7 0 22 -8 33
-10 15 -12 28 -5 46 6 17 5 30 -5 46 -8 12 -18 50 -22 84 l-6 62 33 5 c19 3
74 10 122 15 48 6 92 13 97 16 16 10 11 71 -5 85 -13 11 -38 11 -133 0 -64 -8
-119 -13 -122 -12 -3 1 -8 30 -12 64 -4 35 -19 151 -33 258 -31 244 -101 824
-115 949 -15 137 -34 296 -80 661 -22 179 -47 386 -55 460 -8 74 -20 167 -25
205 -5 39 -12 102 -15 140 -3 39 -11 103 -16 143 -9 64 -8 76 6 92 16 18 16
20 1 35 -8 9 -20 33 -26 53 -10 36 -49 363 -90 757 -11 105 -27 244 -35 309
-8 66 -12 122 -10 125 3 3 27 -6 53 -19 40 -20 69 -24 202 -31 85 -4 185 -8
222 -8 l66 -1 7 40 c5 32 2 46 -15 70 -19 26 -27 30 -68 30 -29 0 -57 7 -72
17 l-24 17 22 6 c33 7 31 22 -6 47 -36 23 -77 29 -284 39 l-138 6 0 27 c0 14
-3 56 -7 94 l-6 67 141 0 c77 0 143 3 145 8 3 4 -8 97 -24 207 -16 110 -36
250 -44 310 -9 61 -22 148 -31 193 -11 62 -12 87 -4 97 8 10 7 14 -7 18 -24 5
-18 7 139 44 92 22 130 27 136 19 8 -10 42 -117 198 -623 27 -87 39 -113 52
-113 38 0 642 220 642 234 0 5 -22 47 -49 95 -27 47 -69 124 -93 171 -25 47
-89 164 -142 260 -60 110 -94 181 -90 192 4 13 0 18 -15 18 -32 0 -25 15 20
45 35 23 45 25 65 16 22 -10 24 -8 24 18 0 37 40 65 82 57 23 -5 30 -2 37 16
7 19 12 16 52 -38 25 -32 110 -151 189 -264 160 -229 219 -310 225 -310 2 0
70 52 152 117 205 161 404 334 397 345 -3 5 -54 50 -113 101 -59 51 -194 168
-300 261 -163 144 -191 172 -185 190 7 22 151 219 165 224 7 3 165 -97 483
-305 87 -58 165 -107 172 -110 13 -5 119 148 186 267 14 25 52 92 85 150 100
175 98 168 71 180 -63 26 -451 179 -576 226 -79 30 -150 61 -158 69 -13 13
-11 26 15 112 17 54 33 114 36 134 12 64 7 64 186 24 90 -21 169 -41 175 -46
6 -5 28 -52 49 -106 21 -54 48 -107 59 -118 13 -12 54 -28 101 -39 44 -10 197
-47 340 -82 143 -34 323 -77 400 -94 412 -91 1247 -308 1774 -460 134 -38 251
-70 261 -70 10 0 22 6 28 13 15 19 117 1157 172 1922 6 83 18 217 26 299 18
189 18 192 -6 216 -15 15 -33 20 -73 20 -29 0 -323 -29 -653 -65 -329 -36
-828 -90 -1109 -120 -280 -30 -555 -61 -610 -69 -170 -25 -294 -39 -308 -33
-9 3 -20 44 -31 114 -21 123 -62 333 -68 338 -2 2 -163 -50 -358 -116 -465
-156 -418 -144 -435 -106 -80 184 -116 269 -113 272 10 8 334 178 506 265 111
56 202 106 202 112 0 9 -54 102 -140 243 -21 33 -70 115 -110 182 -84 143 -64
141 -211 24 -52 -42 -156 -123 -229 -181 -74 -58 -157 -123 -185 -146 -77 -62
-102 -77 -117 -67 -21 13 -218 219 -218 228 0 11 99 121 340 379 107 115 195
212 195 215 0 4 -66 58 -148 119 -81 61 -193 148 -248 192 -55 44 -104 80
-108 80 -4 0 -15 -15 -26 -32 -23 -41 -234 -386 -327 -535 -38 -61 -76 -114
-84 -117 -8 -3 -11 -12 -7 -21 5 -15 2 -15 -33 0 -22 9 -44 19 -51 22 -6 2
-15 22 -18 44 -7 39 -8 40 -30 25 -20 -13 -26 -13 -56 2 -21 11 -35 26 -37 40
-2 15 -9 22 -17 18 -7 -2 -21 1 -30 8 -15 11 -10 30 64 211 44 110 112 275
151 367 38 92 70 171 70 176 0 4 -42 18 -93 30 -83 20 -231 64 -449 134 -37
12 -71 19 -74 15 -3 -3 -26 -99 -50 -214 -123 -591 -118 -568 -139 -567 -79 5
-246 30 -273 41 l-33 14 6 132 c10 215 24 475 31 580 7 91 6 97 -12 96 -10 -1
-59 -8 -109 -15z m214 -845 c97 -10 197 -31 195 -40 -1 -2 -15 -62 -32 -134
-18 -71 -43 -184 -57 -250 -14 -66 -37 -174 -51 -240 -48 -229 -84 -406 -84
-420 0 -7 12 -18 28 -24 25 -10 25 -11 2 -7 -14 3 -59 10 -100 16 -144 22
-148 22 -122 29 22 6 23 10 27 161 9 301 44 818 61 898 5 26 3 25 133 11z
m-607 -132 c3 -60 11 -138 17 -175 5 -37 15 -105 21 -152 6 -47 15 -114 21
-150 5 -36 23 -156 39 -266 17 -111 30 -204 30 -208 0 -3 21 -6 48 -7 l47 -1
-63 -14 c-35 -8 -93 -23 -129 -34 -80 -25 -82 -25 -76 -1 3 11 -18 95 -47 188
-123 401 -182 603 -204 702 -37 160 -37 152 9 168 59 19 247 62 265 60 12 -2
16 -25 22 -110z m1288 -126 c-4 -15 -12 -36 -19 -47 -17 -31 -92 -219 -211
-534 -116 -305 -144 -370 -160 -370 -15 0 -60 23 -60 30 0 27 297 714 382 885
45 88 52 97 63 81 9 -11 11 -27 5 -45z m90 -1 c40 -20 40 -21 27 -53 -16 -38
-297 -552 -334 -609 -13 -22 -26 -38 -28 -36 -5 5 142 394 215 568 28 69 54
131 57 138 7 17 17 15 63 -8z m132 -60 c24 -10 47 -22 50 -25 4 -4 -8 -26 -27
-50 -33 -43 -218 -335 -429 -673 -59 -95 -104 -176 -101 -182 3 -5 26 -24 50
-41 25 -18 43 -34 41 -37 -7 -6 -147 80 -153 94 -9 23 45 127 187 364 27 45
65 113 123 220 16 30 54 99 83 153 30 53 54 100 54 103 0 16 54 94 65 94 7 0
32 -9 57 -20z m-2162 -255 c68 -132 142 -274 165 -315 23 -41 75 -138 115
-215 40 -77 76 -144 80 -148 4 -5 29 1 55 12 27 12 50 19 52 17 6 -6 -123 -76
-140 -76 -8 0 -41 44 -73 98 -31 53 -72 122 -91 152 -80 133 -351 587 -361
607 -16 29 -4 57 37 88 19 13 36 24 37 22 1 -1 57 -110 124 -242z m-223 116
c29 -31 428 -701 418 -701 -6 0 -379 469 -454 569 -34 46 -61 88 -61 94 0 11
56 55 72 56 4 1 15 -8 25 -18z m-53 -146 c33 -44 145 -188 250 -320 104 -132
218 -275 252 -318 64 -81 71 -107 36 -134 -19 -16 -36 -17 -27 -2 4 6 -2 20
-13 32 -90 101 -592 796 -592 821 0 4 8 6 17 4 10 -2 44 -39 77 -83z m3024
-138 c56 -58 102 -110 102 -116 0 -6 -14 -18 -32 -27 -52 -27 -570 -428 -768
-594 l-45 -38 24 -49 c14 -26 24 -54 22 -61 -1 -7 5 -22 13 -33 8 -12 12 -27
10 -34 -3 -6 6 -19 19 -28 15 -10 35 -45 55 -99 44 -117 84 -259 77 -276 -3
-8 -1 -20 4 -26 5 -6 13 -35 17 -64 6 -48 5 -52 -17 -60 -73 -28 -879 -63
-943 -42 -62 20 -84 89 -52 162 8 18 27 65 41 103 42 110 85 221 195 498 84
212 105 257 121 257 29 0 178 -90 184 -111 4 -11 15 -19 25 -19 11 0 51 -30
90 -66 80 -76 105 -83 30 -9 -28 27 -50 55 -50 62 0 7 42 56 93 110 51 54 150
161 222 238 71 77 196 208 279 292 115 117 153 150 165 143 9 -4 62 -55 119
-113z m-3426 -190 c40 -39 125 -118 188 -174 435 -384 525 -465 528 -473 3 -9
-104 -150 -115 -150 -3 0 -3 9 0 21 5 17 -7 29 -66 66 -357 229 -807 537 -807
552 0 8 121 169 153 204 15 15 31 27 36 27 6 0 43 -33 83 -73z m1942 -203 c60
-13 117 -30 126 -39 9 -8 28 -15 43 -15 36 0 97 -30 97 -48 0 -16 -61 -132
-140 -267 -65 -111 -137 -239 -176 -310 -31 -57 -57 -85 -68 -74 -3 3 -10 106
-16 230 -5 123 -13 281 -16 352 l-7 127 -41 11 c-23 6 -51 17 -64 25 -19 13
-21 18 -11 30 16 20 122 12 273 -22z m-334 17 c0 -6 -18 -31 -40 -56 -54 -62
-98 -133 -181 -288 -80 -149 -105 -187 -124 -187 -7 0 -48 46 -91 103 -43 56
-90 117 -106 135 -19 22 -28 44 -28 67 0 29 6 39 38 59 68 43 141 76 155 70 8
-3 17 1 20 9 6 16 161 71 242 86 68 12 115 13 115 2z m2235 -244 c24 -52 53
-121 64 -153 23 -68 27 -63 -69 -84 -30 -7 -253 -78 -495 -159 l-440 -146 2
-48 c2 -58 -4 -56 -21 9 -8 27 -25 79 -39 115 -14 36 -22 70 -18 76 17 25 928
482 964 483 5 0 28 -42 52 -93z m-1674 -44 c-10 -27 -38 -95 -61 -153 -23 -58
-76 -193 -116 -300 -109 -284 -115 -298 -130 -311 -21 -17 -25 -9 -35 68 -13
101 -11 121 11 140 11 10 20 24 20 32 0 7 46 93 101 190 56 97 122 212 147
256 58 104 71 125 77 125 3 0 -4 -21 -14 -47z m-1164 22 c12 -9 48 -59 79
-113 31 -53 73 -124 94 -157 48 -77 54 -104 34 -146 -36 -74 -76 -129 -95
-129 -22 0 -39 -32 -21 -38 19 -6 14 -25 -26 -98 -20 -38 -50 -97 -64 -131
-25 -57 -27 -69 -19 -130 5 -38 6 -71 2 -74 -3 -4 -62 -16 -131 -28 -141 -24
-343 -28 -386 -9 l-26 12 4 98 c3 53 9 103 15 110 6 7 7 22 3 33 -16 46 97
385 130 385 5 0 10 9 10 19 0 40 228 311 262 311 10 0 18 5 18 12 0 11 78 88
89 88 4 0 16 -7 28 -15z m-1451 -202 c11 -7 47 -24 80 -37 32 -13 122 -49 199
-81 77 -31 181 -72 230 -91 50 -18 162 -62 250 -98 152 -61 161 -64 179 -48
18 16 19 16 12 -3 -4 -11 -17 -54 -28 -95 -25 -91 -27 -95 -41 -77 -7 8 -163
51 -362 100 -388 96 -636 163 -660 181 -13 10 -10 26 25 144 22 72 40 134 40
137 0 6 47 -14 76 -32z m1684 -96 c0 -16 -24 9 -43 45 l-18 33 30 -35 c17 -19
31 -38 31 -43z m3220 -326 c0 -5 -49 -89 -108 -187 l-108 -179 -58 -3 c-32 -2
-70 3 -87 10 -26 12 -29 18 -29 59 0 32 5 49 15 53 21 8 19 24 -5 31 -16 5
-20 15 -20 49 0 26 6 48 15 56 12 10 10 15 -13 35 -34 29 -41 27 178 55 96 12
182 23 190 25 28 5 30 5 30 -4z m-443 -67 c5 -14 -38 -31 -102 -39 -27 -3
-104 -12 -170 -20 -66 -8 -270 -36 -453 -62 -346 -49 -362 -49 -347 -4 8 26
-2 24 295 60 659 81 769 90 777 65z m1 -106 l3 -46 -38 -6 c-92 -15 -955 -35
-942 -22 2 2 42 9 89 15 83 10 179 23 600 81 113 16 223 28 245 27 l40 -2 3
-47z m14 -95 c12 -11 18 -30 18 -61 l0 -44 -102 6 c-101 7 -762 26 -885 26
-62 0 -63 -1 -77 -32 l-13 -33 -7 26 c-4 14 -6 41 -4 60 3 34 4 34 63 41 33 4
240 12 460 16 220 5 429 9 464 10 48 2 69 -2 83 -15z m-3592 -76 c0 -43 -5
-80 -12 -90 -12 -15 -67 -18 -527 -27 -308 -6 -518 -7 -524 -1 -9 9 -30 91
-25 96 2 2 120 -1 263 -5 143 -5 383 -12 533 -15 l272 -8 0 30 c0 34 10 93 16
93 2 0 4 -33 4 -73z m2480 48 c27 -14 30 -21 30 -61 l0 -45 -82 6 c-46 3 -173
10 -283 16 -199 11 -348 24 -310 28 11 1 126 17 255 35 270 39 348 43 390 21z
m-605 -26 c-128 -19 -277 -20 -321 -2 -19 8 164 18 356 20 l95 1 -130 -19z
m-322 -36 c-7 -2 -19 -2 -25 0 -7 3 -2 5 12 5 14 0 19 -2 13 -5z m260 -34 c16
-9 18 -18 12 -62 -4 -29 -10 -55 -14 -58 -3 -4 -79 -10 -168 -13 l-163 -7 20
46 c11 26 20 57 20 71 0 25 11 30 85 38 59 6 185 -4 208 -15z m440 -20 c133
-5 244 -12 249 -15 14 -9 9 -81 -7 -94 -9 -8 -12 -18 -6 -27 9 -17 -1 -73 -30
-173 -31 -110 -12 -102 -299 -127 -260 -22 -300 -20 -300 14 0 10 9 77 19 148
11 72 22 159 26 195 10 104 10 103 63 96 25 -3 153 -11 285 -17z m287 -28 c0
-6 -4 -13 -10 -16 -5 -3 -10 1 -10 9 0 9 5 16 10 16 6 0 10 -4 10 -9z m-1930
-68 c58 -102 193 -213 262 -213 20 0 78 -56 78 -76 0 -17 -9 -17 -90 0 -83 18
-161 45 -181 62 -26 23 -37 16 -47 -33 -12 -55 -9 -62 19 -45 18 12 25 9 60
-22 21 -20 44 -36 51 -36 6 0 42 -14 80 -32 59 -27 68 -34 62 -52 -3 -12 -32
-88 -64 -171 -32 -82 -72 -189 -90 -237 -18 -48 -38 -93 -46 -99 -17 -14 -174
76 -189 109 -5 12 -19 22 -30 22 -42 1 -275 243 -275 286 0 8 -8 22 -18 32
-38 38 -137 315 -131 366 2 11 -2 31 -9 43 -16 29 -15 100 1 110 23 14 273 41
399 42 l126 1 32 -57z m-681 33 c-2 -3 -56 -12 -119 -20 -63 -9 -158 -22 -210
-30 -186 -27 -582 -76 -619 -76 -32 0 -41 14 -41 66 0 27 5 35 23 39 12 2 198
9 412 13 557 12 559 12 554 8z m90 -58 c0 -18 -3 -27 -6 -20 -7 17 -39 16
-329 -17 -143 -17 -338 -37 -434 -45 -96 -9 -201 -18 -232 -21 -32 -2 -58 -1
-58 4 0 5 35 12 78 15 42 4 133 14 202 22 122 14 180 22 505 69 88 13 186 23
218 24 l57 1 -1 -32z m1788 -55 c-3 -21 -13 -95 -23 -165 l-17 -128 -56 0
c-54 0 -57 1 -75 35 -19 36 -19 36 2 51 44 31 27 61 -62 104 -37 18 -58 37
-78 70 -14 25 -27 48 -27 52 -1 8 75 13 233 16 l109 2 -6 -37z m-347 -14 c12
-22 3 -24 -24 -4 -10 7 -15 19 -11 24 8 14 22 6 35 -20z m1123 -30 c21 -6 98
-23 170 -39 217 -46 217 -46 217 -80 0 -33 2 -33 -250 -50 -124 -9 -153 -8
-189 5 -42 14 -45 14 -58 -5 -22 -32 -33 -23 -18 14 8 18 22 63 31 100 18 73
23 76 97 55z m-1306 -5 c-3 -3 -12 -4 -19 -1 -8 3 -5 6 6 6 11 1 17 -2 13 -5z
m-7 -93 c0 -16 6 -31 13 -34 9 -3 7 -9 -5 -23 -10 -10 -19 -16 -20 -13 -21 31
-46 88 -41 93 3 3 17 6 30 6 19 0 23 -5 23 -29z m-196 -26 c-15 -53 -22 -65
-34 -65 -15 0 -1 84 17 98 28 20 32 14 17 -33z m353 37 c22 -14 133 -166 125
-173 -4 -4 -62 -11 -129 -14 l-123 -8 -9 26 c-6 14 -17 30 -27 35 -14 8 -10
15 31 53 50 46 105 89 114 89 3 0 11 -4 18 -8z m1688 -36 l40 -12 -55 -7 c-54
-7 -78 1 -66 22 9 14 30 13 81 -3z m-1563 -8 c9 -7 30 -39 48 -70 29 -54 30
-58 12 -58 -17 0 -79 69 -115 127 -11 17 33 18 55 1z m-837 -8 c3 -5 1 -10 -4
-10 -6 0 -11 5 -11 10 0 6 2 10 4 10 3 0 8 -4 11 -10z m-578 -184 c4 -13 2
-17 -5 -12 -7 4 -103 -38 -214 -92 -593 -292 -753 -366 -772 -359 -15 6 -98
213 -94 234 2 11 27 22 73 33 39 10 267 85 507 166 l438 149 0 30 c1 23 8 12
31 -50 17 -44 33 -89 36 -99z m3358 99 c45 -13 54 -20 58 -44 7 -33 5 -43 -34
-173 -16 -54 -34 -100 -39 -103 -5 -3 -32 6 -59 20 -41 20 -300 126 -362 148
-11 4 -18 24 -23 66 -4 34 -4 66 -1 71 3 6 34 11 68 11 34 1 91 5 127 9 113
12 210 11 265 -5z m-525 -60 c0 -26 -5 -45 -11 -45 -10 0 -86 29 -164 62 -29
12 -29 12 35 18 36 4 82 7 103 8 l37 2 0 -45z m-596 -4 c3 -5 -1 -11 -9 -15
-8 -3 -15 -14 -15 -25 0 -37 -223 -301 -255 -301 -7 0 -25 -16 -39 -35 -15
-19 -40 -42 -55 -49 -41 -22 -58 -6 -144 137 -41 67 -89 146 -107 175 -18 29
-30 55 -27 58 7 7 110 19 307 35 159 13 308 25 327 28 6 0 14 -3 17 -8z m-599
-245 c122 -162 140 -189 140 -222 0 -37 -3 -39 -80 -86 -44 -26 -90 -48 -102
-48 -12 0 -25 -5 -28 -10 -15 -24 -208 -82 -317 -95 l-57 -7 -5 33 c-9 53 -35
366 -37 444 -2 81 9 145 25 150 16 6 200 22 266 23 l55 2 140 -184z m-49 128
c20 -31 34 -58 31 -60 -4 -5 -87 100 -87 111 0 20 26 -3 56 -51z m-756 -10 c0
-9 -194 -350 -207 -364 -9 -9 -6 6 7 40 24 60 119 308 124 326 4 9 76 7 76 -2z
m108 -196 c-2 -171 -6 -219 -19 -244 -11 -22 -13 -37 -7 -48 5 -9 7 -30 3 -45
-5 -23 -10 -28 -27 -23 -20 5 -20 10 -14 91 3 47 11 154 16 236 10 152 26 245
43 245 5 0 7 -91 5 -212z m1350 155 c245 -159 510 -338 530 -356 20 -19 22
-29 22 -137 0 -128 -8 -212 -21 -208 -4 2 -85 73 -180 158 -562 506 -530 480
-559 445 -7 -8 -17 -15 -23 -15 -6 0 5 17 24 38 20 20 53 58 74 85 20 26 40
47 42 47 3 0 44 -25 91 -57z m-1406 -30 c-3 -70 -34 -468 -37 -471 -7 -8 -94
22 -99 34 -3 7 -12 11 -20 8 -8 -3 -35 4 -60 15 -69 30 -73 14 87 301 92 163
107 184 120 171 6 -6 10 -32 9 -58z m242 0 c3 -32 8 -96 11 -143 3 -47 10
-119 15 -160 20 -159 13 -226 -20 -205 -9 5 -11 25 -7 61 3 29 3 55 -1 59 -3
3 -12 27 -19 53 -13 49 -18 383 -7 395 14 14 22 -5 28 -60z m-884 -156 l32
-27 -170 -178 c-93 -97 -267 -273 -386 -390 -188 -186 -218 -212 -235 -203
-21 12 -171 172 -171 183 0 3 19 20 43 36 46 31 466 360 642 502 61 49 121 98
134 108 l25 19 -32 50 c-47 73 -39 72 27 -5 32 -38 73 -81 91 -95z m1768 -244
c239 -318 507 -701 498 -710 -11 -12 -12 -11 -215 257 -52 69 -132 172 -177
230 -266 337 -266 337 -254 360 6 11 15 20 20 20 5 0 63 -71 128 -157z m-1464
28 c13 -14 12 -22 -7 -66 -17 -42 -119 -225 -296 -535 -21 -36 -71 -127 -112
-202 -45 -83 -80 -138 -89 -138 -8 0 -32 8 -52 18 l-38 17 34 50 c41 61 147
232 314 505 69 113 144 237 168 275 49 78 52 64 -27 128 l-34 28 62 -32 c34
-17 69 -39 77 -48z m1313 17 c17 -29 79 -136 138 -238 60 -102 166 -279 237
-393 70 -115 128 -215 128 -224 0 -17 -56 -73 -74 -73 -6 0 -26 30 -44 68 -39
78 -214 409 -282 532 -26 47 -75 138 -109 203 -34 64 -68 117 -75 117 -8 0
-30 -7 -51 -16 -65 -27 -59 -10 12 33 37 23 73 42 78 42 6 1 25 -23 42 -51z
m1144 -96 c98 -68 99 -75 41 -161 -43 -63 -120 -151 -133 -151 -5 0 -9 81 -9
185 0 102 4 185 8 185 5 0 47 -26 93 -58z m-2381 38 c17 -9 11 -26 -72 -212
-49 -112 -121 -273 -160 -358 -39 -85 -86 -188 -104 -229 -19 -41 -37 -72 -40
-69 -3 4 2 20 10 36 9 17 25 57 37 89 12 32 45 119 74 193 29 74 81 212 115
305 56 154 102 255 116 255 3 0 14 -4 24 -10z m1500 -255 c157 -199 350 -456
350 -466 0 -8 -67 -49 -81 -49 -14 0 -177 263 -367 590 -30 52 -62 106 -70
120 -26 45 35 -26 168 -195z m-537 -70 c99 -331 129 -436 172 -614 l36 -145
-23 -22 c-21 -20 -126 -52 -220 -69 l-38 -6 0 38 c0 60 -59 491 -126 916 l-17
107 -76 1 -76 0 113 24 c63 13 117 26 120 30 3 3 18 5 31 3 24 -3 30 -17 104
-263z m-686 229 c-3 -3 -12 -4 -19 -1 -8 3 -5 6 6 6 11 1 17 -2 13 -5z m-541
-410 c-93 -248 -169 -431 -185 -447 -12 -12 -91 23 -91 41 0 23 358 667 366
659 2 -2 -39 -115 -90 -253z m492 -114 c-5 -48 -13 -69 -23 -59 -2 3 -2 29 2
57 8 68 27 69 21 2z m-24 -179 c-5 -50 -10 -61 -25 -61 -22 0 -24 17 -8 75 17
66 19 69 30 58 6 -6 8 -33 3 -72z m162 -326 l-14 -80 5 100 c6 101 16 146 21
90 1 -16 -4 -66 -12 -110z m-190 58 c-12 -124 -13 -126 -53 -120 -20 4 -37 8
-39 10 -2 2 3 23 11 48 7 24 19 63 25 87 9 36 15 42 37 42 l25 0 -6 -67z m178
-265 c-10 -187 -45 -582 -54 -618 -10 -41 -6 58 15 320 8 96 17 220 20 275 7
102 10 125 20 125 3 0 3 -46 -1 -102z m-24 -718 c0 -5 -4 -10 -10 -10 -5 0
-10 5 -10 10 0 6 5 10 10 10 6 0 10 -4 10 -10z m90 -25 c0 -29 5 -37 25 -45
14 -5 25 -14 25 -20 0 -5 7 -10 15 -10 11 0 15 12 15 50 0 28 4 50 10 50 10 0
16 -32 24 -122 l5 -58 -136 0 -135 0 7 83 c4 45 9 84 11 86 3 3 10 -1 16 -7
18 -18 35 -14 41 8 4 15 14 20 41 20 35 0 36 -1 36 -35z m125 -246 c4 -6 4
-13 0 -17 -7 -7 -276 -4 -283 3 -2 2 -1 8 3 14 9 15 271 15 280 0z m1 -114 c6
-2 14 -44 18 -100 4 -53 11 -122 17 -153 5 -32 13 -127 19 -212 6 -85 20 -278
31 -429 14 -186 17 -277 10 -284 -9 -9 -458 -14 -467 -5 -5 6 40 696 62 931 8
86 14 179 14 206 0 27 4 51 10 53 13 4 271 -2 286 -7z m-561 -363 c-9 -75 -23
-204 -31 -287 -7 -82 -17 -163 -20 -180 -7 -31 -74 -138 -95 -151 -20 -12 -39
26 -34 65 10 71 75 608 75 620 0 6 6 11 13 11 7 0 33 20 57 46 32 32 46 41 48
30 2 -9 -4 -78 -13 -154z m675 -962 c0 -11 -40 -133 -89 -272 -48 -139 -107
-313 -130 -385 -23 -73 -45 -133 -49 -133 -13 1 -243 724 -243 762 1 26 6 38
19 41 9 3 124 5 255 6 230 1 237 0 237 -19z m26 -212 c20 -214 19 -225 -32
-397 -25 -86 -69 -236 -97 -333 -29 -98 -55 -178 -58 -178 -3 0 -27 64 -53
143 l-46 142 89 265 c147 439 173 511 178 506 3 -3 12 -70 19 -148z m-417
-269 c61 -185 111 -344 111 -353 0 -20 -69 -228 -79 -239 -4 -4 -36 97 -71
225 -35 128 -73 270 -86 316 -21 78 -22 93 -14 215 5 73 9 145 10 162 0 17 4
25 9 20 5 -6 59 -161 120 -346z m-440 225 c11 -4 13 -20 8 -82 -10 -120 -36
-345 -55 -477 l-17 -120 -46 -3 c-60 -4 -83 16 -76 67 2 20 18 149 35 286 17
138 34 271 38 297 l7 47 46 -5 c25 -3 52 -8 60 -10z m150 -135 c-5 -74 -16
-214 -22 -312 -11 -156 -15 -181 -31 -193 -11 -7 -21 -12 -23 -11 -1 2 6 71
16 153 10 82 27 223 36 314 17 168 22 196 30 188 3 -2 0 -65 -6 -139z m761
-439 c28 -335 47 -559 60 -700 5 -63 19 -221 30 -350 11 -129 22 -254 24 -277
2 -24 1 -43 -3 -43 -3 0 -34 91 -69 203 -35 111 -76 238 -92 282 -16 44 -63
187 -105 318 l-77 238 57 187 c31 103 58 194 60 202 2 8 20 73 41 144 47 156
43 165 74 -204z m-610 296 c0 -11 30 -124 76 -281 7 -27 30 -108 49 -179 l35
-129 -56 -171 c-125 -383 -225 -680 -231 -685 -3 -4 -3 30 0 74 20 251 69 874
81 1020 8 94 18 214 22 268 3 53 10 97 15 97 5 0 9 -6 9 -14z m760 -167 c0
-17 9 -102 20 -188 10 -86 29 -237 41 -336 11 -99 32 -265 45 -370 14 -104 29
-280 34 -390 5 -110 14 -276 19 -370 6 -93 13 -244 15 -335 l5 -165 -23 270
c-14 149 -29 329 -35 400 -71 836 -123 1405 -136 1488 -3 15 0 27 5 27 6 0 10
-14 10 -31z m-446 -324 l47 -144 -43 -146 c-23 -80 -45 -142 -49 -138 -7 8
-74 244 -85 300 -5 24 4 66 32 153 22 66 42 120 45 120 3 0 27 -65 53 -145z
m-507 88 c-3 -5 -12 -82 -22 -173 -25 -251 -53 -457 -65 -480 -6 -11 -15 -20
-21 -20 -12 0 -8 48 16 230 8 58 22 177 31 265 8 88 20 166 26 173 11 13 42
17 35 5z m413 -411 l43 -152 -41 -138 c-23 -75 -53 -177 -67 -227 -14 -49 -36
-126 -49 -170 -13 -44 -53 -181 -89 -305 -216 -741 -219 -750 -229 -750 -12 0
-10 82 6 270 8 91 22 255 31 365 29 357 28 353 105 580 67 200 217 658 228
700 5 19 5 19 12 0 4 -11 27 -89 50 -173z m194 26 c19 -62 75 -234 125 -383
49 -148 114 -349 144 -445 l55 -175 26 -310 c15 -170 26 -320 26 -332 0 -20
-5 -23 -42 -23 -55 0 -60 4 -80 65 -17 48 -105 376 -135 500 -8 33 -38 146
-67 250 -30 105 -77 276 -106 380 -28 105 -58 213 -66 242 -14 51 -13 56 20
165 18 62 37 128 41 146 3 17 10 32 15 32 5 0 25 -51 44 -112z m-647 -160 c-3
-8 -6 -5 -6 6 -1 11 2 17 5 13 3 -3 4 -12 1 -19z m-11 -120 c-4 -51 -11 -150
-16 -220 -6 -71 -14 -188 -20 -260 -5 -73 -15 -205 -20 -293 -9 -139 -15 -176
-47 -277 -20 -65 -38 -116 -41 -114 -2 2 4 60 13 128 34 259 37 295 32 348 -4
33 -12 59 -22 66 -14 10 -14 27 -5 145 6 74 19 201 30 283 16 126 22 151 40
163 26 18 50 65 50 98 0 14 3 25 6 25 4 0 4 -42 0 -92z m538 -15 c9 -38 32
-120 51 -183 53 -181 258 -945 292 -1085 7 -33 18 -72 22 -87 11 -34 17 -32
-179 -52 -85 -9 -189 -21 -230 -26 -121 -16 -359 -40 -396 -40 -22 0 -34 5
-34 14 0 7 26 101 59 207 32 107 79 268 105 359 26 91 62 215 81 275 18 61 70
239 116 398 45 158 85 287 89 287 4 0 15 -30 24 -67z m-792 -33 c57 0 55 18
28 -195 -11 -88 -27 -214 -35 -280 -28 -224 -22 -204 -58 -210 -45 -9 -85 9
-93 41 -6 22 7 117 79 592 7 49 14 69 21 62 5 -5 32 -10 58 -10z m1489 -995
c12 -99 23 -209 23 -245 1 -60 -1 -65 -22 -68 -12 -2 -24 3 -26 10 -5 13 -37
709 -35 738 1 17 26 -158 60 -435z m-1354 255 c-2 -47 -16 -170 -31 -275 -14
-104 -26 -194 -26 -199 0 -5 -2 -7 -5 -4 -3 3 1 79 9 169 8 90 18 218 22 284
4 66 11 131 17 145 l11 25 4 -30 c2 -16 2 -68 -1 -115z m-70 -343 c-9 -120
-19 -193 -27 -200 -15 -14 -12 24 16 273 24 208 29 172 11 -73z m94 -132 c-6
-61 -11 -139 -11 -173 0 -68 -2 -70 -60 -74 l-35 -3 3 65 c3 54 63 267 99 350
13 29 15 -54 4 -165z m-135 -166 c-11 -26 -15 -29 -15 -13 -1 12 5 36 11 55
10 28 13 30 16 13 2 -12 -4 -37 -12 -55z m-187 -9 c40 0 41 -1 41 -34 0 -19
-7 -41 -15 -49 -14 -14 -102 -33 -112 -24 -2 3 -1 32 3 66 6 54 8 59 25 51 10
-6 36 -10 58 -10z m1706 -71 c9 -66 1 -72 -19 -13 -20 58 -20 64 -2 64 9 0 16
-17 21 -51z m-1509 -7 c-12 -11 -18 7 -10 30 l8 23 4 -23 c2 -13 1 -26 -2 -30z
m1490 -58 c17 -54 34 -121 38 -148 l6 -48 -38 7 c-20 4 -42 11 -49 16 -16 14
-17 282 -1 277 7 -3 27 -49 44 -104z m-231 35 c0 -27 -3 -49 -6 -49 -8 0 -49
76 -49 90 0 5 12 8 28 8 26 -1 27 -3 27 -49z m-37 -33 c33 -58 42 -83 42 -121
l0 -48 -87 7 c-49 4 -124 11 -168 16 -120 15 -299 31 -397 37 l-88 4 0 -29 c0
-25 5 -30 38 -38 27 -7 -12 -9 -147 -10 l-183 -1 4 74 c2 46 8 77 16 82 7 4
77 13 155 20 253 22 710 70 716 76 2 3 16 5 30 5 22 0 33 -12 69 -74z m-1207
-76 c4 -14 7 -42 8 -63 1 -38 1 -38 -36 -35 l-38 3 3 45 c2 25 6 53 8 63 8 27
47 18 55 -13z m51 13 c22 -20 23 -46 2 -64 -13 -10 -17 -10 -25 2 -5 8 -9 22
-9 31 0 9 -3 23 -6 32 -8 21 14 21 38 -1z m-256 -28 c8 -31 -3 -75 -24 -98
-14 -16 -14 -20 6 -47 l22 -29 -18 -135 c-10 -75 -22 -139 -25 -143 -10 -9
-58 -14 -84 -8 -12 3 -25 15 -28 26 -4 12 3 114 16 228 24 227 26 231 91 231
32 0 39 -4 44 -25z m259 -75 c3 -5 2 -10 -4 -10 -5 0 -13 5 -16 10 -3 6 -2 10
4 10 5 0 13 -4 16 -10z m1185 -79 c-20 -11 -1019 -21 -1026 -10 -5 9 135 13
681 16 209 2 354 -1 345 -6z m-1249 -52 c19 -7 38 -15 42 -19 10 -9 -13 -130
-25 -130 -4 0 -26 36 -48 80 -44 88 -42 93 31 69z m1248 -14 c10 -5 -60 -146
-179 -365 -32 -58 -119 -224 -195 -370 -146 -282 -153 -293 -166 -285 -4 3
-36 60 -70 128 -34 67 -72 140 -84 162 -13 22 -95 181 -184 353 -136 264 -174
351 -158 364 1 1 182 5 402 8 220 3 451 6 512 8 62 2 117 1 122 -3z m241 -5
c0 -5 -5 -10 -11 -10 -7 0 -8 -12 -4 -32 5 -23 4 -30 -3 -23 -9 9 -16 46 -13
68 2 11 31 8 31 -3z m50 -10 c0 -5 -2 -10 -4 -10 -3 0 -8 5 -11 10 -3 6 -1 10
4 10 6 0 11 -4 11 -10z m-1560 -92 c17 -32 30 -68 30 -81 0 -26 -107 -606
-115 -622 -6 -13 2 83 20 245 25 221 37 362 31 367 -3 3 -13 0 -22 -8 -16 -13
-17 -8 -10 76 11 128 12 129 66 23z m1519 -6 c6 -11 6 -24 1 -32 -7 -11 -11
-8 -19 13 -13 35 -13 37 -1 37 5 0 14 -8 19 -18z m71 -142 c6 -69 20 -185 31
-258 17 -123 17 -192 -1 -192 -7 0 -30 113 -30 152 0 13 -4 28 -8 34 -5 5 -19
65 -31 134 -13 69 -27 140 -31 158 -7 27 -3 43 17 85 33 64 36 57 53 -113z
m-104 105 c3 -19 3 -47 -1 -62 -10 -41 -25 -9 -25 55 0 59 15 63 26 7z m-1419
-17 c-2 -13 -4 -5 -4 17 -1 22 1 32 4 23 2 -10 2 -28 0 -40z m-117 -85 c0 -9
-4 -55 -10 -102 -5 -47 -19 -176 -30 -286 -23 -218 -34 -275 -53 -275 -10 0
-10 26 0 128 20 208 61 530 68 542 10 16 25 12 25 -7z m1574 -90 c10 -60 25
-130 32 -158 8 -27 18 -77 23 -110 5 -33 15 -82 21 -109 9 -37 9 -62 0 -108
-12 -66 -7 -90 9 -37 8 29 9 30 10 9 1 -39 -35 -159 -41 -135 -4 16 -8 11 -23
-23 -9 -24 -19 -41 -21 -39 -7 7 -33 389 -27 404 3 8 1 24 -5 36 -17 37 -34
322 -20 352 6 14 14 25 17 25 4 0 15 -48 25 -107z m125 -390 c0 -10 -4 -27 -9
-38 -7 -16 -9 -13 -9 18 -1 20 4 37 9 37 6 0 10 -8 9 -17z m11 -98 c0 -14 -4
-25 -10 -25 -11 0 -14 33 -3 43 11 11 13 8 13 -18z m-35 -116 l-15 -44 6 40
c6 41 13 59 20 52 2 -2 -3 -23 -11 -48z"/>
<path d="M4170 10360 c18 -23 35 -39 37 -36 6 6 -49 76 -60 76 -5 0 6 -18 23
-40z"/>
</g>
</svg>
